<mxfile host="app.diagrams.net" modified="2023-10-02T02:01:46.605Z" agent="Mozilla/5.0 (X11; Linux x86_64) AppleWebKit/537.36 (KHTML, like Gecko) Chrome/117.0.0.0 Safari/537.36" version="21.8.2" etag="5MDgzCTrTgtqvIUdpfjr" type="github">
  <diagram name="PÃ¡gina-1" id="LZb0if2GW8BDBDEYJWqT">
    <mxGraphModel>
      <root>
        <mxCell id="0" />
        <mxCell id="1" parent="0" />
      </root>
    </mxGraphModel>
  </diagram>
</mxfile>
